v 1.0 -0.206369 -1.0 0.8 0.8 0.8
v 1.0 -0.206369 1.0 0.8 0.8 0.8
v -1.0 -0.206369 1.0 0.8 0.8 0.8
v -1.0 -0.206369 -1.0 0.8 0.8 0.8
v 1.0 0.2 1.0 0.8 0.8 0.8
v -1.0 0.2 1.0 0.8 0.8 0.8
v -1.0 -0.206369 1.0 0.8 0.8 0.8
v 1.0 -0.206369 1.0 0.8 0.8 0.8
v -1.0 0.2 1.0 0.8 0.8 0.8
v -1.0 0.2 -1.0 0.8 0.8 0.8
v -1.0 -0.206369 -1.0 0.8 0.8 0.8
v -1.0 -0.206369 1.0 0.8 0.8 0.8
v -1.0 0.2 -1.0 0.8 0.8 0.8
v -1.0 0.2 1.0 0.8 0.8 0.8
v 1.0 0.2 1.0 0.8 0.8 0.8
v 1.0 0.2 -1.0 0.8 0.8 0.8
v 1.0 0.2 -1.0 0.8 0.8 0.8
v 1.0 0.2 1.0 0.8 0.8 0.8
v 1.0 -0.206369 1.0 0.8 0.8 0.8
v 1.0 -0.206369 -1.0 0.8 0.8 0.8
v -1.0 0.2 -1.0 0.8 0.8 0.8
v 1.0 0.2 -1.0 0.8 0.8 0.8
v 1.0 -0.206369 -1.0 0.8 0.8 0.8
v -1.0 -0.206369 -1.0 0.8 0.8 0.8
f 1 2 3 4
f 5 6 3 2
f 6 10 4 3
f 10 6 5 16
f 16 5 2 1
f 10 16 1 4
