v -1.0 0.204092 -1.0 1.0 1.0 1.0
v 1.0 0.204092 1.0 1.0 1.0 1.0
v 1.0 0.204092 -1.0 1.0 1.0 1.0
v 1.0 0.204092 1.0 1.0 1.0 1.0
v -1.0 -0.204092 1.0 1.0 1.0 1.0
v 1.0 -0.204092 1.0 1.0 1.0 1.0
v -1.0 0.204092 1.0 1.0 1.0 1.0
v -1.0 -0.204092 -1.0 1.0 1.0 1.0
v -1.0 -0.204092 1.0 1.0 1.0 1.0
v 1.0 -0.204092 -1.0 1.0 1.0 1.0
v -1.0 -0.204092 1.0 1.0 1.0 1.0
v -1.0 -0.204092 -1.0 1.0 1.0 1.0
v 1.0 0.204092 -1.0 1.0 1.0 1.0
v 1.0 -0.204092 1.0 1.0 1.0 1.0
v 1.0 -0.204092 -1.0 1.0 1.0 1.0
v -1.0 0.204092 -1.0 1.0 1.0 1.0
v 1.0 -0.204092 -1.0 1.0 1.0 1.0
v -1.0 -0.204092 -1.0 1.0 1.0 1.0
v -1.0 0.204092 -1.0 1.0 1.0 1.0
v -1.0 0.204092 1.0 1.0 1.0 1.0
v 1.0 0.204092 1.0 1.0 1.0 1.0
v 1.0 0.204092 1.0 1.0 1.0 1.0
v -1.0 0.204092 1.0 1.0 1.0 1.0
v -1.0 -0.204092 1.0 1.0 1.0 1.0
v -1.0 0.204092 1.0 1.0 1.0 1.0
v -1.0 0.204092 -1.0 1.0 1.0 1.0
v -1.0 -0.204092 -1.0 1.0 1.0 1.0
v 1.0 -0.204092 -1.0 1.0 1.0 1.0
v 1.0 -0.204092 1.0 1.0 1.0 1.0
v -1.0 -0.204092 1.0 1.0 1.0 1.0
v 1.0 0.204092 -1.0 1.0 1.0 1.0
v 1.0 0.204092 1.0 1.0 1.0 1.0
v 1.0 -0.204092 1.0 1.0 1.0 1.0
v -1.0 0.204092 -1.0 1.0 1.0 1.0
v 1.0 0.204092 -1.0 1.0 1.0 1.0
v 1.0 -0.204092 -1.0 1.0 1.0 1.0
f 1 2 3
f 2 5 6
f 7 8 5
f 10 5 8
f 3 6 10
f 1 10 8
f 1 7 2
f 2 7 5
f 7 1 8
f 10 6 5
f 3 2 6
f 1 3 10
