v -0.230143 0.382427 1.208876 0.799999 0.700979 0.760922 0.590232 0.875000
v -0.727371 0.410860 0.960099 0.799999 0.700979 0.760922 0.625000 1.000000
v -0.690127 0.382427 0.978733 0.799999 0.700979 0.760922 0.590232 1.000000
v -0.382157 0.410860 0.270123 0.799999 0.700979 0.760922 0.625000 0.187500
v -0.229841 0.382427 0.058765 0.799999 0.700979 0.760922 0.590232 0.250000
v -0.344912 0.382427 0.288757 0.799999 0.700979 0.760922 0.590232 0.187500
v 0.344912 -0.004142 1.209027 0.799999 0.700979 0.760922 0.375000 0.687500
v -0.230143 -0.004142 1.208876 0.799999 0.700979 0.760922 0.250000 0.750000
v -0.115071 -0.004142 0.978884 0.799999 0.700979 0.760922 0.250000 0.687500
v 0.382157 0.410860 1.227661 0.799999 0.700979 0.760922 0.625000 0.687500
v 0.229841 0.382427 1.439018 0.799999 0.700979 0.760922 0.590232 0.750000
v 0.344912 0.382427 1.209027 0.799999 0.700979 0.760922 0.590232 0.687500
v 0.230143 0.382427 0.288908 0.799999 0.700979 0.760922 0.590232 0.375000
v 0.727371 0.410860 0.537686 0.799999 0.700979 0.760922 0.625000 0.500000
v 0.690127 0.382427 0.519051 0.799999 0.700979 0.760922 0.590232 0.500000
v 0.224926 0.381996 0.300618 0.799999 0.700979 0.760922 0.590232 0.375000
v 0.229841 -0.004142 1.439018 0.799999 0.700979 0.760922 0.375000 0.750000
v -0.229841 -0.004142 0.058765 0.799999 0.700979 0.760922 0.375000 0.250000
v -0.344912 -0.004142 0.288757 0.799999 0.700979 0.760922 0.375000 0.187500
v -0.690127 -0.004142 0.978733 0.799999 0.700979 0.760922 0.375000 1.000000
v -0.230143 -0.004142 1.208876 0.799999 0.700979 0.760922 0.375000 0.875000
v 0.230143 -0.004142 0.288908 0.799999 0.700979 0.760922 0.375000 0.375000
v -0.267086 0.410860 0.040131 0.799999 0.700979 0.760922 0.625000 0.250000
v -0.690127 -0.004142 0.978733 0.799999 0.700979 0.760922 0.125000 0.750000
v -0.575055 -0.004142 0.748741 0.799999 0.700979 0.760922 0.125000 0.687500
v 0.267086 0.410860 1.457653 0.799999 0.700979 0.760922 0.625000 0.750000
v 0.495004 0.508865 0.508812 0.799999 0.700979 0.760922 0.625000 0.500000
v 0.467909 0.695826 0.554495 0.799999 0.700979 0.760922 0.625000 0.562500
v 0.471299 0.508865 0.556191 0.799999 0.700979 0.760922 0.625000 0.562500
v 0.297753 0.559719 0.647079 0.799999 0.700979 0.760922 0.750000 0.750000
v 0.318068 0.695826 0.598004 0.799999 0.700979 0.760922 0.750000 0.687500
v 0.321458 0.559719 0.599700 0.799999 0.700979 0.760922 0.750000 0.687500
v 0.392573 0.559719 0.457563 0.799999 0.700979 0.760922 0.625000 0.375000
v 0.491614 0.695826 0.507116 0.799999 0.700979 0.760922 0.625000 0.500000
v 0.297753 0.559719 0.647079 0.799999 0.700979 0.760922 0.625000 0.875000
v 0.396794 0.695826 0.696632 0.799999 0.700979 0.760922 0.625000 0.750000
v 0.294363 0.695826 0.645383 0.799999 0.700979 0.760922 0.625000 0.875000
v 0.513686 0.708200 0.504523 0.799999 0.700979 0.760922 0.625000 0.500000
v 0.487252 0.742679 0.557355 0.799999 0.700979 0.760922 0.625000 0.562500
v 0.487252 0.708200 0.557355 0.799999 0.700979 0.760922 0.625000 0.562500
v 0.407952 0.708200 0.715851 0.799999 0.700979 0.760922 0.625000 0.750000
v 0.272291 0.742679 0.647977 0.799999 0.700979 0.760922 0.625000 0.875000
v 0.272291 0.708200 0.647977 0.799999 0.700979 0.760922 0.625000 0.875000
v 0.378025 0.698294 0.436648 0.799999 0.700979 0.760922 0.625000 0.375000
v 0.513686 0.698294 0.504523 0.799999 0.700979 0.760922 0.625000 0.500000
v 0.294363 0.695826 0.645383 0.799999 0.700979 0.760922 0.750000 0.750000
v 0.298725 0.698294 0.595144 0.799999 0.700979 0.760922 0.750000 0.687500
v 0.272291 0.698294 0.647977 0.799999 0.700979 0.760922 0.750000 0.750000
v 0.298725 0.708200 0.595144 0.799999 0.700979 0.760922 0.750000 0.687500
v 0.407952 0.698294 0.715851 0.799999 0.700979 0.760922 0.625000 0.750000
v 0.272291 0.698294 0.647977 0.799999 0.700979 0.760922 0.625000 0.875000
v 0.487252 0.698294 0.557355 0.799999 0.700979 0.760922 0.625000 0.562500
v 0.378025 0.708200 0.436648 0.799999 0.700979 0.760922 0.625000 0.375000
v 0.513686 0.742679 0.504523 0.799999 0.700979 0.760922 0.625000 0.500000
v 0.272291 0.708200 0.647977 0.799999 0.700979 0.760922 0.750000 0.750000
v 0.298725 0.742679 0.595144 0.799999 0.700979 0.760922 0.750000 0.687500
v 0.396794 0.745146 0.696632 0.799999 0.700979 0.760922 0.625000 0.750000
v 0.434386 0.742679 0.663019 0.799999 0.700979 0.760922 0.625000 0.687500
v 0.420499 0.745146 0.649253 0.799999 0.700979 0.760922 0.625000 0.687500
v 0.318068 0.745146 0.598004 0.799999 0.700979 0.760922 0.750000 0.687500
v 0.272291 0.742679 0.647977 0.799999 0.700979 0.760922 0.750000 0.750000
v 0.407952 0.742679 0.715851 0.799999 0.700979 0.760922 0.625000 0.750000
v 0.389183 0.745146 0.455867 0.799999 0.700979 0.760922 0.750000 0.500000
v 0.351592 0.742679 0.489480 0.799999 0.700979 0.760922 0.750000 0.562500
v 0.365478 0.745146 0.503246 0.799999 0.700979 0.760922 0.750000 0.562500
v 0.491614 0.745146 0.507116 0.799999 0.700979 0.760922 0.625000 0.500000
v 0.378025 0.742679 0.436648 0.799999 0.700979 0.760922 0.750000 0.500000
v 0.294363 0.745146 0.645383 0.799999 0.700979 0.760922 0.750000 0.750000
v 0.325158 0.742679 0.542312 0.799999 0.700979 0.760922 0.750000 0.625000
v 0.341773 0.745146 0.550625 0.799999 0.700979 0.760922 0.750000 0.625000
v 0.467909 0.745146 0.554495 0.799999 0.700979 0.760922 0.625000 0.562500
v 0.444204 0.745146 0.601874 0.799999 0.700979 0.760922 0.625000 0.625000
v 0.460819 0.742679 0.610187 0.799999 0.700979 0.760922 0.625000 0.625000
v 0.351592 0.708200 0.489480 0.799999 0.700979 0.760922 0.750000 0.562500
v 0.378025 0.708200 0.436648 0.799999 0.700979 0.760922 0.750000 0.500000
v 0.325158 0.708200 0.542312 0.799999 0.700979 0.760922 0.750000 0.625000
v 0.434386 0.698294 0.663019 0.799999 0.700979 0.760922 0.625000 0.687500
v 0.420499 0.695826 0.649253 0.799999 0.700979 0.760922 0.625000 0.687500
v 0.460819 0.698294 0.610187 0.799999 0.700979 0.760922 0.625000 0.625000
v 0.444204 0.695826 0.601874 0.799999 0.700979 0.760922 0.625000 0.625000
v 0.434386 0.708200 0.663019 0.799999 0.700979 0.760922 0.625000 0.687500
v 0.460819 0.708200 0.610187 0.799999 0.700979 0.760922 0.625000 0.625000
v 0.351592 0.698294 0.489480 0.799999 0.700979 0.760922 0.750000 0.562500
v 0.378025 0.698294 0.436648 0.799999 0.700979 0.760922 0.750000 0.500000
v 0.325158 0.698294 0.542312 0.799999 0.700979 0.760922 0.750000 0.625000
v 0.389183 0.695826 0.455867 0.799999 0.700979 0.760922 0.750000 0.500000
v 0.365478 0.695826 0.503246 0.799999 0.700979 0.760922 0.750000 0.562500
v 0.341773 0.695826 0.550625 0.799999 0.700979 0.760922 0.750000 0.625000
v 0.368868 0.559719 0.504942 0.799999 0.700979 0.760922 0.750000 0.562500
v 0.392573 0.559719 0.457563 0.799999 0.700979 0.760922 0.750000 0.500000
v 0.345163 0.559719 0.552321 0.799999 0.700979 0.760922 0.750000 0.625000
v 0.612300 0.410860 0.767677 0.799999 0.700979 0.760922 0.625000 0.562500
v 0.115071 0.657724 0.518900 0.799999 0.700979 0.760922 0.750000 0.562500
v 0.000000 0.657724 0.748892 0.799999 0.700979 0.760922 0.750000 0.625000
v 0.423889 0.508865 0.650949 0.799999 0.700979 0.760922 0.625000 0.687500
v 0.400184 0.508865 0.698328 0.799999 0.700979 0.760922 0.625000 0.750000
v 0.447594 0.508865 0.603570 0.799999 0.700979 0.760922 0.625000 0.625000
v 0.230143 -0.004142 0.288908 0.799999 0.700979 0.760922 0.250000 0.500000
v -0.344912 -0.004142 0.288757 0.799999 0.700979 0.760922 0.125000 0.562500
v -0.229841 -0.004142 0.058765 0.799999 0.700979 0.760922 0.125000 0.500000
v 0.115071 -0.004142 0.518900 0.799999 0.700979 0.760922 0.250000 0.562500
v -0.459984 -0.004142 0.518749 0.799999 0.700979 0.760922 0.125000 0.625000
v 0.000000 -0.004142 0.748892 0.799999 0.700979 0.760922 0.250000 0.625000
v -0.690127 0.382427 0.978733 0.799999 0.700979 0.760922 0.590232 0.000000
v -0.575055 -0.004142 0.748741 0.799999 0.700979 0.760922 0.375000 0.062500
v -0.690127 -0.004142 0.978733 0.799999 0.700979 0.760922 0.375000 0.000000
v -0.575055 0.382427 0.748741 0.799999 0.700979 0.760922 0.590232 0.062500
v -0.459984 -0.004142 0.518749 0.799999 0.700979 0.760922 0.375000 0.125000
v -0.459984 0.382427 0.518749 0.799999 0.700979 0.760922 0.590232 0.125000
v 0.597677 0.181685 0.703828 0.799999 0.700979 0.760922 0.590232 0.562500
v 0.667504 0.181685 0.564266 0.799999 0.700979 0.760922 0.590232 0.500000
v 0.575055 0.382427 0.749043 0.799999 0.700979 0.760922 0.590232 0.562500
v 0.459984 -0.004142 0.979035 0.799999 0.700979 0.760922 0.375000 0.625000
v 0.575055 -0.004142 0.749043 0.799999 0.700979 0.760922 0.375000 0.562500
v 0.432252 0.197637 1.034463 0.799999 0.700979 0.760922 0.590232 0.625000
v 0.459984 0.382427 0.979035 0.799999 0.700979 0.760922 0.590232 0.625000
v 0.497228 0.410860 0.997669 0.799999 0.700979 0.760922 0.625000 0.625000
v -0.727371 0.410860 0.960099 0.799999 0.700979 0.760922 0.625000 0.000000
v -0.612300 0.410860 0.730107 0.799999 0.700979 0.760922 0.625000 0.062500
v -0.497228 0.410860 0.500115 0.799999 0.700979 0.760922 0.625000 0.125000
v 0.418130 -0.002606 1.027398 0.799999 0.700979 0.760922 0.375000 0.625000
v 0.432252 -0.002606 1.034463 0.799999 0.700979 0.760922 0.375000 0.625000
v 0.372645 -0.002606 1.153599 0.799999 0.700979 0.760922 0.375000 0.687500
v 0.372645 0.197637 1.153599 0.799999 0.700979 0.760922 0.590232 0.687500
v 0.358523 -0.002606 1.146533 0.799999 0.700979 0.760922 0.375000 0.687500
v 0.358523 0.197637 1.146533 0.799999 0.700979 0.760922 0.590232 0.687500
v 0.418130 0.197637 1.027398 0.799999 0.700979 0.760922 0.590232 0.625000
v 0.667504 0.120121 0.564266 0.799999 0.700979 0.760922 0.375000 0.500000
v 0.571480 0.120121 0.690721 0.799999 0.700979 0.760922 0.375000 0.562500
v 0.597677 0.120121 0.703828 0.799999 0.700979 0.760922 0.375000 0.562500
v 0.690127 -0.004142 0.519051 0.799999 0.700979 0.760922 0.375000 0.500000
v 0.641307 0.181685 0.551158 0.799999 0.700979 0.760922 0.590232 0.500000
v 0.641307 0.120121 0.551158 0.799999 0.700979 0.760922 0.375000 0.500000
v 0.571480 0.181685 0.690721 0.799999 0.700979 0.760922 0.590232 0.562500
v 0.224926 -0.003711 0.300618 0.799999 0.700979 0.760922 0.375000 0.375000
v 0.683883 0.381996 0.530247 0.799999 0.700979 0.760922 0.590232 0.500000
v 0.230143 0.407610 0.288908 0.799999 0.700979 0.760922 0.250000 0.500000
v -0.230143 0.657724 1.208876 0.799999 0.700979 0.760922 0.625000 0.875000
v 0.230143 0.657724 0.288908 0.799999 0.700979 0.760922 0.625000 0.375000
v 0.389183 0.695826 0.455867 0.799999 0.700979 0.760922 0.625000 0.375000
v 0.378025 0.742679 0.436648 0.799999 0.700979 0.760922 0.625000 0.375000
v -0.115071 0.657724 0.978884 0.799999 0.700979 0.760922 0.750000 0.687500
v 0.230143 0.657724 0.288908 0.799999 0.700979 0.760922 0.750000 0.500000
v 0.683883 -0.003711 0.530247 0.799999 0.700979 0.760922 0.375000 0.500000
v 0.690127 -0.004142 0.519051 0.214036 0.024886 0.003977 0.375000 0.500000
v 0.115071 -0.004142 0.518900 0.214036 0.024886 0.003977 0.250000 0.562500
v 0.230143 -0.004142 0.288908 0.214036 0.024886 0.003977 0.250000 0.500000
v 0.683883 -0.003711 0.530247 0.214036 0.024886 0.003977 0.375000 0.500000
v 0.575055 -0.004142 0.749043 0.214036 0.024886 0.003977 0.375000 0.562500
v 0.224926 -0.003711 0.300618 0.214036 0.024886 0.003977 0.250000 0.500000
v 0.115071 -0.004142 0.518900 0.147653 0.066529 0.021329 0.250000 0.562500
v 0.575055 0.407610 0.749043 0.147653 0.066529 0.021329 0.375000 0.562500
v 0.575055 -0.004142 0.749043 0.147653 0.066529 0.021329 0.375000 0.562500
v 0.230143 0.407610 0.288908 0.147653 0.066529 0.021329 0.250000 0.500000
v 0.230143 -0.004142 0.288908 0.147653 0.066529 0.021329 0.250000 0.500000
v 0.224926 0.381996 0.300618 0.147653 0.066529 0.021329 0.590232 0.375000
v 0.683883 -0.003711 0.530247 0.147653 0.066529 0.021329 0.375000 0.500000
v 0.224926 -0.003711 0.300618 0.147653 0.066529 0.021329 0.375000 0.375000
v 0.115071 0.407610 0.518900 0.147653 0.066529 0.021329 0.250000 0.562500
v 0.683883 0.381996 0.530247 0.147653 0.066529 0.021329 0.590232 0.500000
v 0.418130 0.197637 1.027398 0.799999 0.015022 0.000000 0.590232 0.625000
v 0.358523 -0.002606 1.146533 0.799999 0.015022 0.000000 0.375000 0.687500
v 0.418130 -0.002606 1.027398 0.799999 0.015022 0.000000 0.375000 0.625000
v 0.358523 0.197637 1.146533 0.799999 0.015022 0.000000 0.590232 0.687500
f 1 2 3
f 4 5 6
f 7 8 9
f 10 11 12
f 13 14 15
f 15 16 13
f 12 17 7
f 6 18 19
f 1 20 21
f 11 21 17
f 5 22 18
f 23 13 5
f 9 24 25
f 26 1 11
f 27 28 29
f 30 31 32
f 33 34 27
f 35 36 37
f 38 39 40
f 41 42 43
f 34 44 45
f 46 47 31
f 48 49 47
f 44 38 45
f 50 43 51
f 45 40 52
f 36 51 37
f 53 54 38
f 34 52 28
f 55 56 49
f 57 58 59
f 60 57 59
f 57 61 62
f 63 64 65
f 66 67 63
f 68 56 61
f 60 69 56
f 65 69 70
f 63 71 66
f 65 72 71
f 70 59 72
f 66 39 54
f 71 73 39
f 59 73 72
f 74 67 75
f 76 64 74
f 49 69 76
f 36 77 50
f 78 79 77
f 28 79 80
f 77 41 50
f 79 81 77
f 52 82 79
f 83 75 84
f 85 74 83
f 47 76 85
f 86 83 84
f 87 85 83
f 31 85 88
f 81 62 41
f 82 58 81
f 40 73 82
f 89 86 90
f 91 87 89
f 32 88 91
f 92 93 94
f 95 36 96
f 97 78 95
f 29 80 97
f 98 99 100
f 101 102 99
f 103 25 102
f 104 105 106
f 107 108 105
f 109 19 108
f 15 110 111
f 112 113 114
f 12 115 116
f 14 112 15
f 92 116 112
f 117 12 116
f 114 103 101
f 113 9 103
f 118 107 104
f 119 109 107
f 120 6 109
f 93 4 120
f 115 121 122
f 113 123 7
f 7 124 12
f 113 115 122
f 122 125 123
f 123 126 124
f 124 127 115
f 128 129 130
f 131 111 128
f 131 130 114
f 114 110 112
f 110 132 111
f 111 133 128
f 130 134 110
f 13 135 22
f 131 136 15
f 98 15 137
f 1 138 2
f 4 23 5
f 7 17 8
f 10 26 11
f 13 139 14
f 15 136 16
f 12 11 17
f 6 5 18
f 1 3 20
f 11 1 21
f 5 13 22
f 23 139 13
f 9 8 24
f 26 138 1
f 27 34 28
f 30 46 31
f 33 140 34
f 35 96 36
f 38 54 39
f 41 62 42
f 34 140 44
f 46 48 47
f 48 55 49
f 44 53 38
f 50 41 43
f 45 38 40
f 36 50 51
f 53 141 54
f 34 45 52
f 55 61 56
f 57 62 58
f 60 68 57
f 57 68 61
f 63 67 64
f 66 54 67
f 68 60 56
f 60 70 69
f 65 64 69
f 63 65 71
f 65 70 72
f 70 60 59
f 66 71 39
f 71 72 73
f 59 58 73
f 74 64 67
f 76 69 64
f 49 56 69
f 36 78 77
f 78 80 79
f 28 52 79
f 77 81 41
f 79 82 81
f 52 40 82
f 83 74 75
f 85 76 74
f 47 49 76
f 86 87 83
f 87 88 85
f 31 47 85
f 81 58 62
f 82 73 58
f 40 39 73
f 89 87 86
f 91 88 87
f 32 31 88
f 138 26 10
f 138 10 142
f 10 117 142
f 92 14 143
f 142 117 94
f 117 92 94
f 92 143 93
f 95 78 36
f 97 80 78
f 29 28 80
f 98 101 99
f 101 103 102
f 103 9 25
f 104 107 105
f 107 109 108
f 109 6 19
f 15 112 110
f 112 116 113
f 12 124 115
f 14 92 112
f 92 117 116
f 117 10 12
f 114 113 103
f 113 7 9
f 118 119 107
f 119 120 109
f 120 4 6
f 118 138 142
f 118 142 119
f 142 94 119
f 93 143 23
f 119 94 120
f 94 93 120
f 93 23 4
f 115 127 121
f 113 122 123
f 7 123 124
f 113 116 115
f 122 121 125
f 123 125 126
f 124 126 127
f 128 133 129
f 131 15 111
f 131 128 130
f 114 130 110
f 110 134 132
f 111 132 133
f 130 129 134
f 13 16 135
f 131 144 136
f 98 131 15
f 145 146 147
f 147 148 145
f 145 149 146
f 147 150 148
f 151 152 153
f 151 154 155
f 156 157 158
f 151 159 152
f 151 159 154
f 156 160 157
f 161 162 163
f 161 164 162
